<svg width="36" height="39" viewBox="0 0 36 39" fill="none" xmlns="http://www.w3.org/2000/svg">
<path d="M33 3H28.5V1.5C28.5 1.10218 28.342 0.720644 28.0607 0.43934C27.7794 0.158035 27.3978 0 27 0C26.6022 0 26.2206 0.158035 25.9393 0.43934C25.658 0.720644 25.5 1.10218 25.5 1.5V3H10.5V1.5C10.5 1.10218 10.342 0.720644 10.0607 0.43934C9.77936 0.158035 9.39782 0 9 0C8.60218 0 8.22064 0.158035 7.93934 0.43934C7.65804 0.720644 7.5 1.10218 7.5 1.5V3H3C2.20435 3 1.44129 3.31607 0.87868 3.87868C0.31607 4.44129 0 5.20435 0 6V36C0 36.7957 0.31607 37.5587 0.87868 38.1213C1.44129 38.6839 2.20435 39 3 39H33C33.7957 39 34.5587 38.6839 35.1213 38.1213C35.6839 37.5587 36 36.7957 36 36V6C36 5.20435 35.6839 4.44129 35.1213 3.87868C34.5587 3.31607 33.7957 3 33 3ZM7.5 6V7.5C7.5 7.89782 7.65804 8.27936 7.93934 8.56066C8.22064 8.84196 8.60218 9 9 9C9.39782 9 9.77936 8.84196 10.0607 8.56066C10.342 8.27936 10.5 7.89782 10.5 7.5V6H25.5V7.5C25.5 7.89782 25.658 8.27936 25.9393 8.56066C26.2206 8.84196 26.6022 9 27 9C27.3978 9 27.7794 8.84196 28.0607 8.56066C28.342 8.27936 28.5 7.89782 28.5 7.5V6H33V12H3V6H7.5ZM33 36H3V15H33V36Z" fill="#313234"/>
</svg>
