<svg width="19" height="34" viewBox="0 0 19 34" fill="none" xmlns="http://www.w3.org/2000/svg">
<path d="M18.0612 30.9388C18.2006 31.0781 18.3111 31.2436 18.3865 31.4257C18.462 31.6078 18.5008 31.8029 18.5008 32C18.5008 32.1971 18.462 32.3923 18.3865 32.5744C18.3111 32.7564 18.2006 32.9219 18.0612 33.0613C17.9218 33.2006 17.7564 33.3112 17.5743 33.3866C17.3922 33.462 17.1971 33.5008 17 33.5008C16.8029 33.5008 16.6077 33.462 16.4256 33.3866C16.2435 33.3112 16.0781 33.2006 15.9387 33.0613L0.938709 18.0613C0.799244 17.922 0.688607 17.7565 0.61312 17.5744C0.537634 17.3923 0.498779 17.1971 0.498779 17C0.498779 16.8029 0.537634 16.6077 0.61312 16.4256C0.688607 16.2435 0.799244 16.0781 0.938709 15.9388L15.9387 0.93876C16.2202 0.657299 16.6019 0.499176 17 0.499176C17.398 0.499176 17.7797 0.657299 18.0612 0.93876C18.3427 1.22022 18.5008 1.60196 18.5008 2.00001C18.5008 2.39806 18.3427 2.7798 18.0612 3.06126L4.12058 17L18.0612 30.9388Z" fill="white"/>
</svg>
