<svg width="19" height="34" viewBox="0 0 19 34" fill="none" xmlns="http://www.w3.org/2000/svg">
<path d="M18.0612 18.0612L3.06123 33.0612C2.92186 33.2006 2.75641 33.3112 2.57432 33.3866C2.39223 33.462 2.19707 33.5008 1.99998 33.5008C1.80289 33.5008 1.60772 33.462 1.42563 33.3866C1.24355 33.3112 1.07809 33.2006 0.938729 33.0612C0.799363 32.9219 0.688813 32.7564 0.613389 32.5743C0.537965 32.3923 0.499146 32.1971 0.499146 32C0.499146 31.8029 0.537965 31.6077 0.613389 31.4257C0.688813 31.2436 0.799363 31.0781 0.938729 30.9387L14.8794 17L0.938729 3.06124C0.657268 2.77978 0.499146 2.39804 0.499146 1.99999C0.499146 1.60195 0.657268 1.22021 0.938729 0.938745C1.22019 0.657284 1.60193 0.499161 1.99998 0.499161C2.39803 0.499161 2.77977 0.657284 3.06123 0.938745L18.0612 15.9387C18.2007 16.0781 18.3113 16.2435 18.3868 16.4256C18.4623 16.6077 18.5012 16.8029 18.5012 17C18.5012 17.1971 18.4623 17.3923 18.3868 17.5744C18.3113 17.7565 18.2007 17.9219 18.0612 18.0612Z" fill="#313234"/>
</svg>
