<svg width="38" height="38" viewBox="0 0 38 38" fill="none" xmlns="http://www.w3.org/2000/svg">
<path d="M36.5 0H27.5C27.1022 0 26.7207 0.158036 26.4394 0.43934C26.1581 0.720645 26 1.10218 26 1.5C26 1.89782 26.1581 2.27936 26.4394 2.56066C26.7207 2.84196 27.1022 3 27.5 3H32.8794L24.9913 10.8881C22.0117 8.45263 18.2101 7.25545 14.3727 7.54419C10.5352 7.83293 6.95554 9.58549 4.37398 12.4394C1.79242 15.2933 0.406486 19.0303 0.502813 22.8774C0.599139 26.7245 2.17036 30.3874 4.89151 33.1085C7.61266 35.8297 11.2756 37.4009 15.1226 37.4972C18.9697 37.5935 22.7067 36.2076 25.5606 33.626C28.4145 31.0445 30.1671 27.4648 30.4558 23.6274C30.7446 19.7899 29.5474 15.9883 27.1119 13.0087L35 5.1225V10.5C35 10.8978 35.1581 11.2794 35.4394 11.5607C35.7207 11.842 36.1022 12 36.5 12C36.8978 12 37.2794 11.842 37.5607 11.5607C37.842 11.2794 38 10.8978 38 10.5V1.5C38 1.10218 37.842 0.720645 37.5607 0.43934C37.2794 0.158036 36.8978 0 36.5 0ZM23.9825 30.9919C22.3041 32.6696 20.1659 33.8119 17.8382 34.2745C15.5106 34.7371 13.0981 34.4991 10.9057 33.5907C8.7133 32.6823 6.83947 31.1442 5.52114 29.171C4.2028 27.1977 3.49915 24.8778 3.49915 22.5047C3.49915 20.1315 4.2028 17.8117 5.52114 15.8384C6.83947 13.8651 8.7133 12.3271 10.9057 11.4186C13.0981 10.5102 15.5106 10.2723 17.8382 10.7349C20.1659 11.1975 22.3041 12.3398 23.9825 14.0175C26.2295 16.2705 27.4914 19.3227 27.4914 22.5047C27.4914 25.6867 26.2295 28.7388 23.9825 30.9919Z" fill="white"/>
</svg>
