<svg width="30" height="44" viewBox="0 0 30 44" fill="none" xmlns="http://www.w3.org/2000/svg">
<path d="M30 15C30 12.0972 29.1577 9.25685 27.5753 6.82331C25.993 4.38977 23.7385 2.46763 21.0853 1.29002C18.4322 0.112403 15.4943 -0.270095 12.6281 0.188913C9.76184 0.64792 7.09036 1.92871 4.93763 3.87596C2.78489 5.8232 1.2434 8.35324 0.500108 11.1592C-0.243187 13.9652 -0.156355 16.9266 0.750076 19.6842C1.65651 22.4418 3.34359 24.8771 5.60672 26.6949C7.86985 28.5127 10.6118 29.6347 13.5 29.925V34.5H7.5C7.10218 34.5 6.72065 34.658 6.43934 34.9393C6.15804 35.2206 6 35.6022 6 36C6 36.3978 6.15804 36.7794 6.43934 37.0607C6.72065 37.342 7.10218 37.5 7.5 37.5H13.5V42C13.5 42.3978 13.658 42.7794 13.9393 43.0607C14.2206 43.342 14.6022 43.5 15 43.5C15.3978 43.5 15.7794 43.342 16.0607 43.0607C16.342 42.7794 16.5 42.3978 16.5 42V37.5H22.5C22.8978 37.5 23.2794 37.342 23.5607 37.0607C23.842 36.7794 24 36.3978 24 36C24 35.6022 23.842 35.2206 23.5607 34.9393C23.2794 34.658 22.8978 34.5 22.5 34.5H16.5V29.925C20.1982 29.5487 23.6254 27.8144 26.119 25.0576C28.6126 22.3008 29.9954 18.7173 30 15ZM3 15C3 12.6266 3.70379 10.3066 5.02236 8.33316C6.34094 6.35977 8.21509 4.8217 10.4078 3.91345C12.6005 3.0052 15.0133 2.76756 17.3411 3.23058C19.6689 3.6936 21.8071 4.83649 23.4853 6.51472C25.1635 8.19295 26.3064 10.3311 26.7694 12.6589C27.2324 14.9867 26.9948 17.3995 26.0866 19.5922C25.1783 21.7849 23.6402 23.6591 21.6668 24.9776C19.6935 26.2962 17.3734 27 15 27C11.8185 26.9965 8.76824 25.7311 6.51856 23.4814C4.26887 21.2318 3.00347 18.1815 3 15Z" fill="white"/>
</svg>
