<svg width="48" height="48" viewBox="0 0 48 48" fill="none" xmlns="http://www.w3.org/2000/svg">
<path d="M30.375 0C26.5031 0 23.1131 1.665 21 4.47937C18.8869 1.665 15.4969 0 11.625 0C8.54292 0.00347388 5.58808 1.22936 3.40872 3.40872C1.22936 5.58808 0.00347388 8.54292 0 11.625C0 24.75 19.4606 35.3737 20.2894 35.8125C20.5078 35.93 20.752 35.9915 21 35.9915C21.248 35.9915 21.4922 35.93 21.7106 35.8125C22.5394 35.3737 42 24.75 42 11.625C41.9965 8.54292 40.7706 5.58808 38.5913 3.40872C36.4119 1.22936 33.4571 0.00347388 30.375 0ZM21 32.775C17.5763 30.78 3 21.6919 3 11.625C3.00298 9.33842 3.91264 7.14635 5.52949 5.52949C7.14635 3.91264 9.33842 3.00298 11.625 3C15.2719 3 18.3337 4.9425 19.6125 8.0625C19.7255 8.33762 19.9178 8.57293 20.1648 8.73853C20.4119 8.90413 20.7026 8.99255 21 8.99255C21.2974 8.99255 21.5881 8.90413 21.8352 8.73853C22.0822 8.57293 22.2745 8.33762 22.3875 8.0625C23.6662 4.93687 26.7281 3 30.375 3C32.6616 3.00298 34.8537 3.91264 36.4705 5.52949C38.0874 7.14635 38.997 9.33842 39 11.625C39 21.6769 24.42 30.7781 21 32.775Z" fill="#313234"/>
</svg>
