<svg width="36" height="38" viewBox="0 0 36 38" fill="none" xmlns="http://www.w3.org/2000/svg">
<path d="M35.0306 15.4569L20.0306 1.30436C20.0233 1.29796 20.0164 1.29107 20.01 1.28373C19.4577 0.781485 18.7381 0.503174 17.9916 0.503174C17.2451 0.503174 16.5254 0.781485 15.9731 1.28373L15.9525 1.30436L0.969375 15.4569C0.663746 15.7379 0.419782 16.0793 0.252922 16.4595C0.086061 16.8397 -6.30803e-05 17.2504 3.46647e-08 17.6656V35C3.46647e-08 35.7956 0.31607 36.5587 0.87868 37.1213C1.44129 37.6839 2.20435 38 3 38H33C33.7957 38 34.5587 37.6839 35.1213 37.1213C35.6839 36.5587 36 35.7956 36 35V17.6656C36.0001 17.2504 35.9139 16.8397 35.7471 16.4595C35.5802 16.0793 35.3363 15.7379 35.0306 15.4569ZM33 35H3V17.6656L3.02063 17.6469L18 3.49998L32.9812 17.6431L33.0019 17.6619L33 35Z" fill="#313234"/>
</svg>
