<svg width="32" height="32" viewBox="0 0 32 32" fill="none" xmlns="http://www.w3.org/2000/svg">
<path d="M25.9999 3H20.9999C20.7347 3 20.4804 3.10536 20.2928 3.29289C20.1053 3.48043 19.9999 3.73478 19.9999 4C19.9999 4.26522 20.1053 4.51957 20.2928 4.70711C20.4804 4.89464 20.7347 5 20.9999 5H23.5862L20.4424 8.14375C19.5193 7.28349 18.4058 6.65378 17.1929 6.30605C15.9799 5.95833 14.7019 5.90245 13.4633 6.14298C12.2246 6.38352 11.0604 6.91364 10.0657 7.69005C9.07109 8.46646 8.27419 9.46714 7.74014 10.6104C7.2061 11.7536 6.95004 13.0069 6.9929 14.268C7.03575 15.5291 7.3763 16.7621 7.98673 17.8665C8.59715 18.9708 9.46014 19.9151 10.5052 20.6222C11.5503 21.3293 12.7478 21.7791 13.9999 21.935V24H10.9999C10.7347 24 10.4804 24.1054 10.2928 24.2929C10.1053 24.4804 9.99994 24.7348 9.99994 25C9.99994 25.2652 10.1053 25.5196 10.2928 25.7071C10.4804 25.8946 10.7347 26 10.9999 26H13.9999V29C13.9999 29.2652 14.1053 29.5196 14.2928 29.7071C14.4804 29.8946 14.7347 30 14.9999 30C15.2652 30 15.5195 29.8946 15.707 29.7071C15.8946 29.5196 15.9999 29.2652 15.9999 29V26H18.9999C19.2652 26 19.5195 25.8946 19.707 25.7071C19.8946 25.5196 19.9999 25.2652 19.9999 25C19.9999 24.7348 19.8946 24.4804 19.707 24.2929C19.5195 24.1054 19.2652 24 18.9999 24H15.9999V21.935C17.3403 21.7676 18.6164 21.263 19.7089 20.4685C20.8014 19.674 21.6746 18.6155 22.2469 17.3919C22.8193 16.1684 23.072 14.8196 22.9816 13.4718C22.8912 12.1241 22.4606 10.8212 21.7299 9.685L24.9999 6.41375V9C24.9999 9.26522 25.1053 9.51957 25.2928 9.70711C25.4804 9.89464 25.7347 10 25.9999 10C26.2652 10 26.5195 9.89464 26.707 9.70711C26.8946 9.51957 26.9999 9.26522 26.9999 9V4C26.9999 3.73478 26.8946 3.48043 26.707 3.29289C26.5195 3.10536 26.2652 3 25.9999 3ZM14.9999 20C13.8133 20 12.6532 19.6481 11.6665 18.9888C10.6798 18.3295 9.91079 17.3925 9.45666 16.2961C9.00254 15.1997 8.88372 13.9933 9.11523 12.8295C9.34674 11.6656 9.91818 10.5965 10.7573 9.75736C11.5964 8.91824 12.6655 8.3468 13.8294 8.11529C14.9933 7.88378 16.1997 8.0026 17.296 8.45672C18.3924 8.91085 19.3295 9.67988 19.9888 10.6666C20.648 11.6533 20.9999 12.8133 20.9999 14C20.9983 15.5908 20.3656 17.116 19.2408 18.2408C18.1159 19.3657 16.5907 19.9983 14.9999 20Z" fill="#313234"/>
</svg>
