<svg width="32" height="32" viewBox="0 0 32 32" fill="none" xmlns="http://www.w3.org/2000/svg">
<path d="M26 3H21C20.7348 3 20.4804 3.10536 20.2929 3.29289C20.1054 3.48043 20 3.73478 20 4C20 4.26522 20.1054 4.51957 20.2929 4.70711C20.4804 4.89464 20.7348 5 21 5H23.5863L20.4425 8.14375C19.5194 7.28349 18.4059 6.65378 17.193 6.30605C15.98 5.95833 14.702 5.90245 13.4633 6.14298C12.2247 6.38352 11.0605 6.91364 10.0658 7.69005C9.07115 8.46646 8.27425 9.46714 7.7402 10.6104C7.20616 11.7536 6.9501 13.0069 6.99296 14.268C7.03581 15.5291 7.37636 16.7621 7.98679 17.8665C8.59721 18.9708 9.46021 19.9151 10.5053 20.6222C11.5503 21.3293 12.7479 21.7791 14 21.935V24H11C10.7348 24 10.4804 24.1054 10.2929 24.2929C10.1054 24.4804 10 24.7348 10 25C10 25.2652 10.1054 25.5196 10.2929 25.7071C10.4804 25.8946 10.7348 26 11 26H14V29C14 29.2652 14.1054 29.5196 14.2929 29.7071C14.4804 29.8946 14.7348 30 15 30C15.2652 30 15.5196 29.8946 15.7071 29.7071C15.8946 29.5196 16 29.2652 16 29V26H19C19.2652 26 19.5196 25.8946 19.7071 25.7071C19.8946 25.5196 20 25.2652 20 25C20 24.7348 19.8946 24.4804 19.7071 24.2929C19.5196 24.1054 19.2652 24 19 24H16V21.935C17.3404 21.7676 18.6165 21.263 19.709 20.4685C20.8014 19.674 21.6746 18.6155 22.247 17.3919C22.8193 16.1684 23.0721 14.8196 22.9817 13.4718C22.8913 12.1241 22.4606 10.8212 21.73 9.685L25 6.41375V9C25 9.26522 25.1054 9.51957 25.2929 9.70711C25.4804 9.89464 25.7348 10 26 10C26.2652 10 26.5196 9.89464 26.7071 9.70711C26.8946 9.51957 27 9.26522 27 9V4C27 3.73478 26.8946 3.48043 26.7071 3.29289C26.5196 3.10536 26.2652 3 26 3ZM15 20C13.8133 20 12.6533 19.6481 11.6666 18.9888C10.6799 18.3295 9.91085 17.3925 9.45672 16.2961C9.0026 15.1997 8.88378 13.9933 9.11529 12.8295C9.3468 11.6656 9.91824 10.5965 10.7574 9.75736C11.5965 8.91824 12.6656 8.3468 13.8295 8.11529C14.9933 7.88378 16.1997 8.0026 17.2961 8.45672C18.3925 8.91085 19.3295 9.67988 19.9888 10.6666C20.6481 11.6533 21 12.8133 21 14C20.9983 15.5908 20.3657 17.116 19.2408 18.2408C18.116 19.3657 16.5908 19.9983 15 20Z" fill="white"/>
</svg>
