<svg width="34" height="34" viewBox="0 0 34 34" fill="none" xmlns="http://www.w3.org/2000/svg">
<path d="M28.7431 5.25688C27.6199 4.13388 26.0972 3.50207 24.5089 3.49996C22.9206 3.49785 21.3962 4.12561 20.27 5.24562L18.0856 7.535C17.8063 7.79611 17.4377 7.94067 17.0553 7.93913C16.6729 7.93758 16.3056 7.79005 16.0283 7.52668C15.7511 7.26332 15.5849 6.90401 15.5637 6.5222C15.5425 6.14039 15.6679 5.76491 15.9144 5.4725L18.1119 3.16812C18.1195 3.15954 18.1277 3.1514 18.1362 3.14375C19.8287 1.47863 22.1106 0.549733 24.4848 0.559401C26.8591 0.569068 29.1333 1.51652 30.8121 3.19536C32.491 4.87421 33.4384 7.14845 33.4481 9.52268C33.4578 11.8969 32.5289 14.1788 30.8638 15.8713C30.8561 15.8798 30.848 15.888 30.8394 15.8956L28.535 18.0931C28.2426 18.3396 27.8671 18.465 27.4853 18.4438C27.1035 18.4226 26.7442 18.2564 26.4808 17.9792C26.2175 17.702 26.0699 17.3346 26.0684 16.9522C26.0668 16.5698 26.2114 16.2012 26.4725 15.9219L28.7619 13.7375C29.8832 12.61 30.5111 11.0835 30.5075 9.49331C30.504 7.90315 29.8694 6.37942 28.7431 5.25688ZM15.9144 26.465L13.73 28.7544C12.5994 29.8524 11.082 30.4615 9.50597 30.45C7.92991 30.4385 6.42166 29.8073 5.30718 28.6928C4.1927 27.5783 3.5615 26.0701 3.54998 24.494C3.53846 22.918 4.14755 21.4006 5.24562 20.27L7.535 18.0856C7.79611 17.8063 7.94067 17.4377 7.93913 17.0553C7.93758 16.6729 7.79005 16.3056 7.52668 16.0283C7.26332 15.7511 6.90401 15.5849 6.5222 15.5637C6.14039 15.5425 5.76491 15.6679 5.4725 15.9144L3.16062 18.1119C3.15204 18.1195 3.1439 18.1277 3.13625 18.1362C1.47113 19.8287 0.542233 22.1106 0.5519 24.4848C0.561568 26.8591 1.50902 29.1333 3.18787 30.8121C4.86671 32.491 7.14095 33.4384 9.51518 33.4481C11.8894 33.4578 14.1713 32.5289 15.8638 30.8638C15.8723 30.8561 15.8805 30.848 15.8881 30.8394L18.0856 28.535C18.235 28.3954 18.3543 28.2267 18.4361 28.0393C18.5179 27.8518 18.5605 27.6497 18.5614 27.4452C18.5622 27.2407 18.5212 27.0382 18.4409 26.8502C18.3606 26.6621 18.2427 26.4924 18.0944 26.3516C17.9462 26.2108 17.7707 26.1017 17.5788 26.0312C17.3868 25.9607 17.1825 25.9301 16.9783 25.9414C16.7741 25.9528 16.5744 26.0057 16.3915 26.097C16.2085 26.1884 16.0462 26.3161 15.9144 26.4725V26.465ZM32 21.5H27.5C27.1022 21.5 26.7206 21.658 26.4393 21.9393C26.158 22.2206 26 22.6022 26 23C26 23.3978 26.158 23.7794 26.4393 24.0607C26.7206 24.342 27.1022 24.5 27.5 24.5H32C32.3978 24.5 32.7794 24.342 33.0607 24.0607C33.342 23.7794 33.5 23.3978 33.5 23C33.5 22.6022 33.342 22.2206 33.0607 21.9393C32.7794 21.658 32.3978 21.5 32 21.5ZM2 12.5H6.5C6.89782 12.5 7.27936 12.342 7.56066 12.0607C7.84196 11.7794 8 11.3978 8 11C8 10.6022 7.84196 10.2206 7.56066 9.93934C7.27936 9.65804 6.89782 9.5 6.5 9.5H2C1.60218 9.5 1.22064 9.65804 0.93934 9.93934C0.658036 10.2206 0.5 10.6022 0.5 11C0.5 11.3978 0.658036 11.7794 0.93934 12.0607C1.22064 12.342 1.60218 12.5 2 12.5ZM23 26C22.6022 26 22.2206 26.158 21.9393 26.4393C21.658 26.7206 21.5 27.1022 21.5 27.5V32C21.5 32.3978 21.658 32.7794 21.9393 33.0607C22.2206 33.342 22.6022 33.5 23 33.5C23.3978 33.5 23.7794 33.342 24.0607 33.0607C24.342 32.7794 24.5 32.3978 24.5 32V27.5C24.5 27.1022 24.342 26.7206 24.0607 26.4393C23.7794 26.158 23.3978 26 23 26ZM11 8C11.3978 8 11.7794 7.84196 12.0607 7.56066C12.342 7.27936 12.5 6.89782 12.5 6.5V2C12.5 1.60218 12.342 1.22064 12.0607 0.93934C11.7794 0.658036 11.3978 0.5 11 0.5C10.6022 0.5 10.2206 0.658036 9.93934 0.93934C9.65804 1.22064 9.5 1.60218 9.5 2V6.5C9.5 6.89782 9.65804 7.27936 9.93934 7.56066C10.2206 7.84196 10.6022 8 11 8Z" fill="#313234"/>
</svg>
