<svg width="34" height="42" viewBox="0 0 34 42" fill="none" xmlns="http://www.w3.org/2000/svg">
<path d="M17 9C15.5166 9 14.0666 9.43987 12.8332 10.264C11.5999 11.0881 10.6386 12.2594 10.0709 13.6299C9.50325 15.0003 9.35472 16.5083 9.64411 17.9632C9.9335 19.418 10.6478 20.7544 11.6967 21.8033C12.7456 22.8522 14.082 23.5665 15.5368 23.8559C16.9917 24.1453 18.4997 23.9968 19.8701 23.4291C21.2406 22.8614 22.4119 21.9001 23.236 20.6668C24.0601 19.4334 24.5 17.9834 24.5 16.5C24.5 14.5109 23.7098 12.6032 22.3033 11.1967C20.8968 9.79018 18.9891 9 17 9ZM17 21C16.11 21 15.24 20.7361 14.4999 20.2416C13.7599 19.7471 13.1831 19.0443 12.8425 18.2221C12.5019 17.3998 12.4128 16.495 12.5865 15.6221C12.7601 14.7492 13.1887 13.9474 13.818 13.318C14.4474 12.6887 15.2492 12.2601 16.1221 12.0865C16.995 11.9128 17.8998 12.0019 18.7221 12.3425C19.5443 12.6831 20.2471 13.2599 20.7416 13.9999C21.2361 14.74 21.5 15.61 21.5 16.5C21.5 17.6935 21.0259 18.8381 20.182 19.682C19.3381 20.5259 18.1935 21 17 21ZM17 0C12.6255 0.00496262 8.43149 1.74494 5.33822 4.83822C2.24494 7.93149 0.504963 12.1255 0.5 16.5C0.5 22.3875 3.22062 28.6275 8.375 34.5469C10.691 37.2217 13.2977 39.6303 16.1469 41.7281C16.3991 41.9048 16.6996 41.9996 17.0075 41.9996C17.3154 41.9996 17.6159 41.9048 17.8681 41.7281C20.712 39.6294 23.3137 37.2208 25.625 34.5469C30.7719 28.6275 33.5 22.3875 33.5 16.5C33.495 12.1255 31.7551 7.93149 28.6618 4.83822C25.5685 1.74494 21.3745 0.00496262 17 0ZM17 38.625C13.9006 36.1875 3.5 27.2344 3.5 16.5C3.5 12.9196 4.92232 9.4858 7.45406 6.95406C9.9858 4.42232 13.4196 3 17 3C20.5804 3 24.0142 4.42232 26.5459 6.95406C29.0777 9.4858 30.5 12.9196 30.5 16.5C30.5 27.2306 20.0994 36.1875 17 38.625Z" fill="#313234"/>
</svg>
