<svg width="36" height="45" viewBox="0 0 36 45" fill="none" xmlns="http://www.w3.org/2000/svg">
<path d="M24 6.5C24 5.31332 23.6481 4.15328 22.9888 3.16658C22.3295 2.17989 21.3925 1.41085 20.2961 0.956726C19.1997 0.5026 17.9933 0.38378 16.8295 0.615291C15.6656 0.846802 14.5965 1.41825 13.7574 2.25736C12.9182 3.09648 12.3468 4.16558 12.1153 5.32946C11.8838 6.49335 12.0026 7.69975 12.4567 8.7961C12.9108 9.89246 13.6799 10.8295 14.6666 11.4888C15.6533 12.1481 16.8133 12.5 18 12.5C19.5913 12.5 21.1174 11.8679 22.2426 10.7426C23.3679 9.61743 24 8.0913 24 6.5ZM18 9.5C17.4067 9.5 16.8266 9.32406 16.3333 8.99441C15.8399 8.66477 15.4554 8.19623 15.2284 7.64805C15.0013 7.09988 14.9419 6.49668 15.0576 5.91473C15.1734 5.33279 15.4591 4.79824 15.8787 4.37868C16.2982 3.95913 16.8328 3.6734 17.4147 3.55765C17.9967 3.44189 18.5999 3.5013 19.1481 3.72836C19.6962 3.95543 20.1648 4.33995 20.4944 4.83329C20.8241 5.32664 21 5.90666 21 6.5C21 7.29565 20.6839 8.05871 20.1213 8.62132C19.5587 9.18393 18.7956 9.5 18 9.5ZM34.9387 24.1344L26.4694 14.5306C25.9063 13.8923 25.2138 13.3811 24.4379 13.031C23.662 12.6809 22.8206 12.4999 21.9694 12.5H14.0306C13.1794 12.4999 12.338 12.6809 11.5621 13.031C10.7862 13.3811 10.0937 13.8923 9.53063 14.5306L1.06125 24.1344C0.373457 24.8378 -0.0103525 25.7834 -0.00742972 26.7672C-0.0045069 27.751 0.384915 28.6943 1.07688 29.3936C1.76884 30.0929 2.70791 30.4923 3.69163 30.5057C4.67536 30.5191 5.62493 30.1453 6.33563 29.465L9.39188 27.0125L6.29063 38.8025C5.87987 39.7088 5.84597 40.7411 6.19637 41.6724C6.54677 42.6037 7.25277 43.3577 8.15906 43.7684C9.06536 44.1792 10.0977 44.2131 11.029 43.8627C11.9603 43.5123 12.7142 42.8063 13.125 41.9L18 33.4869L22.875 41.9C23.3041 42.7759 24.0576 43.4501 24.9756 43.7797C25.8936 44.1092 26.9038 44.0681 27.792 43.6651C28.6802 43.2621 29.3764 42.5289 29.733 41.6211C30.0896 40.7133 30.0784 39.7022 29.7019 38.8025L26.6081 27.0125L29.6644 29.465C30.3751 30.1453 31.3246 30.5191 32.3084 30.5057C33.2921 30.4923 34.2312 30.0929 34.9231 29.3936C35.6151 28.6943 36.0045 27.751 36.0074 26.7672C36.0103 25.7834 35.6265 24.8378 34.9387 24.1344ZM32.7806 27.2788C32.711 27.3485 32.6283 27.4038 32.5372 27.4415C32.4462 27.4793 32.3486 27.4987 32.25 27.4987C32.1514 27.4987 32.0538 27.4793 31.9628 27.4415C31.8717 27.4038 31.789 27.3485 31.7194 27.2788C31.68 27.2413 31.6406 27.2038 31.5975 27.17L24.9375 21.83C24.6917 21.6338 24.3905 21.5198 24.0764 21.5042C23.7622 21.4885 23.4512 21.572 23.1871 21.7428C22.923 21.9136 22.7193 22.1631 22.6047 22.456C22.4902 22.7489 22.4706 23.0704 22.5487 23.375L26.8387 39.6875C26.8608 39.7745 26.891 39.8592 26.9287 39.9406C26.972 40.0301 26.9971 40.1273 27.0025 40.2265C27.0079 40.3258 26.9935 40.4251 26.9602 40.5188C26.9268 40.6124 26.8752 40.6985 26.8083 40.772C26.7414 40.8455 26.6606 40.905 26.5705 40.947C26.4804 40.989 26.3829 41.0127 26.2836 41.0166C26.1843 41.0206 26.0851 41.0048 25.992 40.9701C25.8988 40.9355 25.8135 40.8826 25.741 40.8147C25.6684 40.7467 25.6101 40.6651 25.5694 40.5744C25.551 40.5339 25.5303 40.4944 25.5075 40.4563L19.2975 29.75C19.1656 29.5227 18.9764 29.334 18.7487 29.2029C18.521 29.0717 18.2628 29.0027 18 29.0027C17.7372 29.0027 17.479 29.0717 17.2513 29.2029C17.0236 29.334 16.8344 29.5227 16.7025 29.75L10.5 40.4469C10.4772 40.4851 10.4565 40.5245 10.4381 40.565C10.3965 40.6544 10.3376 40.7347 10.2649 40.8013C10.1922 40.8679 10.1071 40.9195 10.0144 40.9531C9.8749 41.0043 9.72339 41.0128 9.57905 40.9777C9.4347 40.9426 9.30404 40.8654 9.20361 40.756C9.10319 40.6465 9.03753 40.5097 9.01497 40.3629C8.99241 40.216 9.01395 40.0658 9.07688 39.9313C9.11466 39.8499 9.14479 39.7651 9.16688 39.6781L13.4512 23.375C13.5294 23.0704 13.5098 22.7489 13.3953 22.456C13.2807 22.1631 13.077 21.9136 12.8129 21.7428C12.5488 21.572 12.2378 21.4885 11.9236 21.5042C11.6095 21.5198 11.3083 21.6338 11.0625 21.83L4.4025 27.17C4.35938 27.2038 4.32 27.2413 4.28063 27.2788C4.21174 27.3514 4.12901 27.4095 4.03731 27.4497C3.94561 27.4898 3.8468 27.5112 3.7467 27.5126C3.64661 27.5139 3.54725 27.4953 3.45448 27.4576C3.36172 27.42 3.27743 27.3642 3.20658 27.2934C3.13573 27.2227 3.07976 27.1385 3.04196 27.0458C3.00416 26.9531 2.9853 26.8538 2.9865 26.7537C2.98769 26.6536 3.00891 26.5548 3.0489 26.463C3.0889 26.3712 3.14686 26.2884 3.21938 26.2194C3.24188 26.1969 3.2625 26.1744 3.28313 26.15L11.7806 16.5144C12.0623 16.1954 12.4086 15.94 12.7965 15.7651C13.1844 15.5902 13.6051 15.4998 14.0306 15.5H21.9694C22.3949 15.4998 22.8156 15.5902 23.2035 15.7651C23.5914 15.94 23.9377 16.1954 24.2194 16.5144L32.7169 26.15C32.7375 26.1744 32.7581 26.1969 32.7806 26.2194C32.9209 26.36 32.9997 26.5505 32.9997 26.7491C32.9997 26.9477 32.9209 27.1382 32.7806 27.2788Z" fill="#313234"/>
</svg>
