<svg width="16" height="16" viewBox="0 0 16 16" fill="none" xmlns="http://www.w3.org/2000/svg">
<path d="M15.3194 3.79244C14.8412 2.96807 13.5794 2.78244 11.6631 3.25119C10.776 2.56522 9.7142 2.1418 8.59845 2.02904C7.48271 1.91629 6.3577 2.11871 5.35124 2.61332C4.34478 3.10792 3.4972 3.87488 2.9048 4.82708C2.31241 5.77927 1.99893 6.87851 1.99999 7.99994C2.00007 8.25717 2.01635 8.51414 2.04874 8.76932C0.318112 10.5624 0.343112 11.6249 0.681237 12.2074C0.999987 12.7599 1.66499 12.9999 2.53999 12.9999C3.1475 12.9874 3.75143 12.9035 4.33936 12.7499C5.22662 13.4352 6.28825 13.8581 7.40371 13.9704C8.51917 14.0827 9.64378 13.88 10.6498 13.3853C11.6559 12.8907 12.5031 12.1238 13.0953 11.1719C13.6875 10.2199 14.0009 9.12104 14 7.99994C14.0001 7.74397 13.984 7.48825 13.9519 7.23432C14.7331 6.42182 15.2531 5.64994 15.43 4.98932C15.5519 4.53182 15.515 4.12932 15.3194 3.79244ZM7.99999 2.99994C9.13245 3.0011 10.2311 3.38615 11.1165 4.09221C12.0019 4.79827 12.6218 5.78364 12.875 6.88744C11.8087 7.89119 10.3656 8.92057 8.99561 9.70807C7.27374 10.6962 5.77999 11.3124 4.58874 11.6499C3.85503 10.9656 3.34434 10.0763 3.12315 9.0977C2.90196 8.11909 2.98051 7.09657 3.34859 6.16323C3.71666 5.2299 4.3572 4.429 5.18682 3.8648C6.01644 3.3006 6.9967 2.99923 7.99999 2.99994ZM1.54624 11.7056C1.45499 11.5487 1.50561 11.2531 1.68499 10.8931C1.86237 10.5558 2.07818 10.2401 2.32811 9.95244C2.57586 10.6703 2.95762 11.3345 3.45311 11.9099C2.37499 12.0912 1.70249 11.9756 1.54624 11.7056ZM7.99999 12.9999C7.15694 13.0008 6.32756 12.787 5.58999 12.3787C6.94379 11.8999 8.25006 11.296 9.49186 10.5749C10.8406 9.80057 12.0344 8.96119 12.9962 8.13244C12.9606 9.43441 12.4188 10.6712 11.4859 11.5801C10.553 12.489 9.30245 12.9983 7.99999 12.9999ZM14.4637 4.73057C14.3575 5.12494 14.0769 5.57619 13.6744 6.05119C13.4273 5.33252 13.0454 4.66753 12.5494 4.09182C13.4375 3.94494 14.26 3.95619 14.4556 4.29432C14.5119 4.39244 14.515 4.53932 14.4637 4.73057Z" fill="white"/>
</svg>
