<svg width="40" height="40" viewBox="0 0 40 40" fill="none" xmlns="http://www.w3.org/2000/svg">
<path d="M22.25 29.75C22.25 30.195 22.118 30.63 21.8708 31C21.6236 31.37 21.2722 31.6584 20.861 31.8287C20.4499 31.999 19.9975 32.0436 19.5611 31.9568C19.1246 31.87 18.7237 31.6557 18.409 31.341C18.0944 31.0263 17.8801 30.6254 17.7932 30.189C17.7064 29.7525 17.751 29.3001 17.9213 28.889C18.0916 28.4778 18.38 28.1264 18.75 27.8792C19.12 27.632 19.555 27.5 20 27.5C20.5967 27.5 21.169 27.7371 21.591 28.159C22.013 28.581 22.25 29.1533 22.25 29.75ZM20 9.5C15.8638 9.5 12.5 12.5281 12.5 16.25V17C12.5 17.3978 12.658 17.7794 12.9393 18.0607C13.2207 18.342 13.6022 18.5 14 18.5C14.3978 18.5 14.7794 18.342 15.0607 18.0607C15.342 17.7794 15.5 17.3978 15.5 17V16.25C15.5 14.1875 17.5194 12.5 20 12.5C22.4806 12.5 24.5 14.1875 24.5 16.25C24.5 18.3125 22.4806 20 20 20C19.6022 20 19.2207 20.158 18.9393 20.4393C18.658 20.7206 18.5 21.1022 18.5 21.5V23C18.5 23.3978 18.658 23.7794 18.9393 24.0607C19.2207 24.342 19.6022 24.5 20 24.5C20.3978 24.5 20.7794 24.342 21.0607 24.0607C21.342 23.7794 21.5 23.3978 21.5 23V22.865C24.92 22.2369 27.5 19.5087 27.5 16.25C27.5 12.5281 24.1363 9.5 20 9.5ZM39.5 20C39.5 23.8567 38.3564 27.6269 36.2137 30.8336C34.071 34.0404 31.0255 36.5397 27.4623 38.0156C23.8992 39.4916 19.9784 39.8777 16.1957 39.1253C12.4131 38.3729 8.93855 36.5157 6.21143 33.7886C3.4843 31.0615 1.62711 27.5869 0.874696 23.8043C0.122284 20.0216 0.508449 16.1008 1.98436 12.5377C3.46027 8.97451 5.95963 5.92903 9.16639 3.78634C12.3731 1.64366 16.1433 0.5 20 0.5C25.1701 0.50546 30.1268 2.56167 33.7826 6.21745C37.4383 9.87322 39.4945 14.83 39.5 20ZM36.5 20C36.5 16.7366 35.5323 13.5465 33.7193 10.8331C31.9062 8.11968 29.3293 6.00483 26.3143 4.75599C23.2993 3.50714 19.9817 3.18039 16.781 3.81704C13.5803 4.4537 10.6403 6.02517 8.33275 8.33274C6.02518 10.6403 4.45371 13.5803 3.81705 16.781C3.1804 19.9817 3.50715 23.2993 4.756 26.3143C6.00484 29.3293 8.11969 31.9062 10.8331 33.7192C13.5465 35.5323 16.7366 36.5 20 36.5C24.3746 36.495 28.5685 34.7551 31.6618 31.6618C34.7551 28.5685 36.495 24.3745 36.5 20Z" fill="white"/>
</svg>
