<svg width="41" height="29" viewBox="0 0 41 29" fill="none" xmlns="http://www.w3.org/2000/svg">
<path d="M0 2C0 1.60218 0.158036 1.22064 0.43934 0.93934C0.720645 0.658036 1.10218 0.5 1.5 0.5H34.5C34.8978 0.5 35.2794 0.658036 35.5607 0.93934C35.842 1.22064 36 1.60218 36 2C36 2.39782 35.842 2.77936 35.5607 3.06066C35.2794 3.34196 34.8978 3.5 34.5 3.5H1.5C1.10218 3.5 0.720645 3.34196 0.43934 3.06066C0.158036 2.77936 0 2.39782 0 2ZM19.5 12.5H1.5C1.10218 12.5 0.720645 12.658 0.43934 12.9393C0.158036 13.2206 0 13.6022 0 14C0 14.3978 0.158036 14.7794 0.43934 15.0607C0.720645 15.342 1.10218 15.5 1.5 15.5H19.5C19.8978 15.5 20.2794 15.342 20.5607 15.0607C20.842 14.7794 21 14.3978 21 14C21 13.6022 20.842 13.2206 20.5607 12.9393C20.2794 12.658 19.8978 12.5 19.5 12.5ZM19.5 24.5H1.5C1.10218 24.5 0.720645 24.658 0.43934 24.9393C0.158036 25.2206 0 25.6022 0 26C0 26.3978 0.158036 26.7794 0.43934 27.0607C0.720645 27.342 1.10218 27.5 1.5 27.5H19.5C19.8978 27.5 20.2794 27.342 20.5607 27.0607C20.842 26.7794 21 26.3978 21 26C21 25.6022 20.842 25.2206 20.5607 24.9393C20.2794 24.658 19.8978 24.5 19.5 24.5ZM40.5 20C40.4999 20.2543 40.4351 20.5044 40.3118 20.7267C40.1885 20.9491 40.0106 21.1365 39.795 21.2712L27.795 28.7712C27.568 28.9131 27.3072 28.9917 27.0396 28.9987C26.772 29.0058 26.5073 28.9411 26.2732 28.8114C26.039 28.6817 25.8438 28.4917 25.7079 28.2611C25.5719 28.0305 25.5001 27.7677 25.5 27.5V12.5C25.5001 12.2323 25.5719 11.9695 25.7079 11.7389C25.8438 11.5083 26.039 11.3183 26.2732 11.1886C26.5073 11.0589 26.772 10.9942 27.0396 11.0013C27.3072 11.0083 27.568 11.0869 27.795 11.2288L39.795 18.7288C40.0106 18.8635 40.1885 19.0509 40.3118 19.2733C40.4351 19.4956 40.4999 19.7457 40.5 20ZM36.1706 20L28.5 15.2056V24.7944L36.1706 20Z" fill="white"/>
</svg>
