<svg width="40" height="41" viewBox="0 0 40 41" fill="none" xmlns="http://www.w3.org/2000/svg">
<path d="M33.5 8H21.5V2C21.5 1.60218 21.342 1.22064 21.0607 0.93934C20.7794 0.658035 20.3978 0.5 20 0.5C19.6022 0.5 19.2206 0.658035 18.9393 0.93934C18.658 1.22064 18.5 1.60218 18.5 2V8H6.5C4.9087 8 3.38258 8.63214 2.25736 9.75736C1.13214 10.8826 0.5 12.4087 0.5 14V35C0.5 36.5913 1.13214 38.1174 2.25736 39.2426C3.38258 40.3679 4.9087 41 6.5 41H33.5C35.0913 41 36.6174 40.3679 37.7426 39.2426C38.8679 38.1174 39.5 36.5913 39.5 35V14C39.5 12.4087 38.8679 10.8826 37.7426 9.75736C36.6174 8.63214 35.0913 8 33.5 8ZM36.5 35C36.5 35.7957 36.1839 36.5587 35.6213 37.1213C35.0587 37.6839 34.2957 38 33.5 38H6.5C5.70435 38 4.94129 37.6839 4.37868 37.1213C3.81607 36.5587 3.5 35.7957 3.5 35V14C3.5 13.2044 3.81607 12.4413 4.37868 11.8787C4.94129 11.3161 5.70435 11 6.5 11H33.5C34.2957 11 35.0587 11.3161 35.6213 11.8787C36.1839 12.4413 36.5 13.2044 36.5 14V35ZM26.75 24.5H13.25C11.8576 24.5 10.5223 25.0531 9.53769 26.0377C8.55312 27.0223 8 28.3576 8 29.75C8 31.1424 8.55312 32.4777 9.53769 33.4623C10.5223 34.4469 11.8576 35 13.25 35H26.75C28.1424 35 29.4777 34.4469 30.4623 33.4623C31.4469 32.4777 32 31.1424 32 29.75C32 28.3576 31.4469 27.0223 30.4623 26.0377C29.4777 25.0531 28.1424 24.5 26.75 24.5ZM21.5 27.5V32H18.5V27.5H21.5ZM11 29.75C11 29.1533 11.2371 28.581 11.659 28.159C12.081 27.7371 12.6533 27.5 13.25 27.5H15.5V32H13.25C12.6533 32 12.081 31.7629 11.659 31.341C11.2371 30.919 11 30.3467 11 29.75ZM26.75 32H24.5V27.5H26.75C27.3467 27.5 27.919 27.7371 28.341 28.159C28.7629 28.581 29 29.1533 29 29.75C29 30.3467 28.7629 30.919 28.341 31.341C27.919 31.7629 27.3467 32 26.75 32ZM9.5 19.25C9.5 18.805 9.63196 18.37 9.87919 18C10.1264 17.63 10.4778 17.3416 10.889 17.1713C11.3001 17.001 11.7525 16.9564 12.189 17.0432C12.6254 17.13 13.0263 17.3443 13.341 17.659C13.6557 17.9737 13.87 18.3746 13.9568 18.811C14.0436 19.2475 13.999 19.6999 13.8287 20.111C13.6584 20.5222 13.37 20.8736 13 21.1208C12.63 21.368 12.195 21.5 11.75 21.5C11.1533 21.5 10.581 21.2629 10.159 20.841C9.73705 20.419 9.5 19.8467 9.5 19.25ZM26 19.25C26 18.805 26.132 18.37 26.3792 18C26.6264 17.63 26.9778 17.3416 27.389 17.1713C27.8001 17.001 28.2525 16.9564 28.689 17.0432C29.1254 17.13 29.5263 17.3443 29.841 17.659C30.1557 17.9737 30.37 18.3746 30.4568 18.811C30.5436 19.2475 30.499 19.6999 30.3287 20.111C30.1584 20.5222 29.87 20.8736 29.5 21.1208C29.13 21.368 28.695 21.5 28.25 21.5C27.6533 21.5 27.081 21.2629 26.659 20.841C26.2371 20.419 26 19.8467 26 19.25Z" fill="#313234"/>
</svg>
