<svg width="48" height="48" viewBox="0 0 48 48" fill="none" xmlns="http://www.w3.org/2000/svg">
<path d="M17.25 19.5C16.2116 19.5 15.1966 19.8079 14.3333 20.3848C13.4699 20.9617 12.797 21.7816 12.3996 22.7409C12.0023 23.7002 11.8983 24.7558 12.1009 25.7742C12.3034 26.7926 12.8035 27.7281 13.5377 28.4623C14.2719 29.1965 15.2074 29.6966 16.2258 29.8991C17.2442 30.1017 18.2998 29.9977 19.2591 29.6004C20.2184 29.203 21.0383 28.5301 21.6152 27.6667C22.1921 26.8034 22.5 25.7884 22.5 24.75C22.5 23.3576 21.9469 22.0223 20.9623 21.0377C19.9777 20.0531 18.6424 19.5 17.25 19.5ZM17.25 27C16.805 27 16.37 26.868 16 26.6208C15.63 26.3736 15.3416 26.0222 15.1713 25.611C15.001 25.1999 14.9564 24.7475 15.0432 24.311C15.13 23.8746 15.3443 23.4737 15.659 23.159C15.9737 22.8443 16.3746 22.63 16.811 22.5432C17.2475 22.4564 17.6999 22.501 18.111 22.6713C18.5222 22.8416 18.8736 23.13 19.1208 23.5C19.368 23.87 19.5 24.305 19.5 24.75C19.5 25.3467 19.2629 25.919 18.841 26.341C18.419 26.7629 17.8467 27 17.25 27ZM30.75 19.5C29.7116 19.5 28.6966 19.8079 27.8333 20.3848C26.9699 20.9617 26.297 21.7816 25.8996 22.7409C25.5023 23.7002 25.3983 24.7558 25.6009 25.7742C25.8034 26.7926 26.3035 27.7281 27.0377 28.4623C27.7719 29.1965 28.7074 29.6966 29.7258 29.8991C30.7442 30.1017 31.7998 29.9977 32.7591 29.6004C33.7184 29.203 34.5383 28.5301 35.1152 27.6667C35.6921 26.8034 36 25.7884 36 24.75C36 23.3576 35.4469 22.0223 34.4623 21.0377C33.4777 20.0531 32.1424 19.5 30.75 19.5ZM30.75 27C30.305 27 29.87 26.868 29.5 26.6208C29.13 26.3736 28.8416 26.0222 28.6713 25.611C28.501 25.1999 28.4564 24.7475 28.5432 24.311C28.63 23.8746 28.8443 23.4737 29.159 23.159C29.4737 22.8443 29.8746 22.63 30.311 22.5432C30.7475 22.4564 31.1999 22.501 31.611 22.6713C32.0222 22.8416 32.3736 23.13 32.6208 23.5C32.868 23.87 33 24.305 33 24.75C33 25.3467 32.7629 25.919 32.341 26.341C31.919 26.7629 31.3467 27 30.75 27ZM24 3C13.2469 3 4.5 11.4113 4.5 21.75C4.5 28.1437 7.92563 34.125 13.5 37.5525V40.5C13.5 41.2957 13.8161 42.0587 14.3787 42.6213C14.9413 43.1839 15.7044 43.5 16.5 43.5H31.5C32.2956 43.5 33.0587 43.1839 33.6213 42.6213C34.1839 42.0587 34.5 41.2957 34.5 40.5V37.5525C40.0744 34.125 43.5 28.1437 43.5 21.75C43.5 11.4113 34.7531 3 24 3ZM32.2725 35.3794C32.0383 35.5093 31.8431 35.6995 31.7073 35.9303C31.5714 36.1611 31.4999 36.4241 31.5 36.6919V40.5H28.5V36C28.5 35.6022 28.342 35.2206 28.0607 34.9393C27.7794 34.658 27.3978 34.5 27 34.5C26.6022 34.5 26.2206 34.658 25.9393 34.9393C25.658 35.2206 25.5 35.6022 25.5 36V40.5H22.5V36C22.5 35.6022 22.342 35.2206 22.0607 34.9393C21.7794 34.658 21.3978 34.5 21 34.5C20.6022 34.5 20.2206 34.658 19.9393 34.9393C19.658 35.2206 19.5 35.6022 19.5 36V40.5H16.5V36.6919C16.5001 36.4241 16.4286 36.1611 16.2927 35.9303C16.1569 35.6995 15.9617 35.5093 15.7275 35.3794C10.6519 32.5669 7.5 27.345 7.5 21.75C7.5 13.065 14.9025 6 24 6C33.0975 6 40.5 13.065 40.5 21.75C40.5 27.3431 37.3481 32.5669 32.2725 35.3794Z" fill="#313234"/>
</svg>
