<svg width="32" height="32" viewBox="0 0 32 32" fill="none" xmlns="http://www.w3.org/2000/svg">
<g clip-path="url(#clip0_71_8218)">
<path d="M16 3C13.4288 3 10.9154 3.76244 8.77759 5.1909C6.63975 6.61935 4.97351 8.64968 3.98957 11.0251C3.00563 13.4006 2.74819 16.0144 3.2498 18.5362C3.75141 21.0579 4.98953 23.3743 6.80762 25.1924C8.6257 27.0105 10.9421 28.2486 13.4638 28.7502C15.9856 29.2518 18.5995 28.9944 20.9749 28.0104C23.3503 27.0265 25.3807 25.3603 26.8091 23.2224C28.2376 21.0846 29 18.5712 29 16C28.9964 12.5533 27.6256 9.24882 25.1884 6.81163C22.7512 4.37445 19.4467 3.00364 16 3ZM16 27C13.8244 27 11.6977 26.3549 9.88873 25.1462C8.07979 23.9375 6.66989 22.2195 5.83733 20.2095C5.00477 18.1995 4.78693 15.9878 5.21137 13.854C5.63581 11.7202 6.68345 9.7602 8.22183 8.22183C9.76021 6.68345 11.7202 5.6358 13.854 5.21136C15.9878 4.78692 18.1995 5.00476 20.2095 5.83733C22.2195 6.66989 23.9375 8.07979 25.1462 9.88873C26.3549 11.6977 27 13.8244 27 16C26.9967 18.9164 25.8367 21.7123 23.7745 23.7745C21.7123 25.8367 18.9164 26.9967 16 27ZM13 13.5C13 13.7967 12.912 14.0867 12.7472 14.3334C12.5824 14.58 12.3481 14.7723 12.074 14.8858C11.7999 14.9994 11.4983 15.0291 11.2074 14.9712C10.9164 14.9133 10.6491 14.7704 10.4393 14.5607C10.2296 14.3509 10.0867 14.0836 10.0288 13.7926C9.97095 13.5017 10.0007 13.2001 10.1142 12.926C10.2277 12.6519 10.42 12.4176 10.6667 12.2528C10.9133 12.088 11.2033 12 11.5 12C11.8978 12 12.2794 12.158 12.5607 12.4393C12.842 12.7206 13 13.1022 13 13.5ZM22 13.5C22 13.7967 21.912 14.0867 21.7472 14.3334C21.5824 14.58 21.3481 14.7723 21.074 14.8858C20.7999 14.9994 20.4983 15.0291 20.2074 14.9712C19.9164 14.9133 19.6491 14.7704 19.4393 14.5607C19.2296 14.3509 19.0867 14.0836 19.0288 13.7926C18.971 13.5017 19.0007 13.2001 19.1142 12.926C19.2277 12.6519 19.42 12.4176 19.6667 12.2528C19.9133 12.088 20.2033 12 20.5 12C20.8978 12 21.2794 12.158 21.5607 12.4393C21.842 12.7206 22 13.1022 22 13.5Z" fill="white"/>
</g>
<defs>
<clipPath id="clip0_71_8218">
<rect width="32" height="32" fill="white"/>
</clipPath>
</defs>
</svg>
