<svg width="48" height="48" viewBox="0 0 48 48" fill="none" xmlns="http://www.w3.org/2000/svg">
<g clip-path="url(#clip0_93_9328)">
<path d="M24 4.5C20.1433 4.5 16.3731 5.64366 13.1664 7.78634C9.95963 9.92903 7.46027 12.9745 5.98436 16.5377C4.50845 20.1008 4.12228 24.0216 4.8747 27.8043C5.62711 31.5869 7.4843 35.0615 10.2114 37.7886C12.9386 40.5157 16.4131 42.3729 20.1957 43.1253C23.9784 43.8777 27.8992 43.4916 31.4623 42.0156C35.0255 40.5397 38.071 38.0404 40.2137 34.8336C42.3564 31.6269 43.5 27.8567 43.5 24C43.4945 18.83 41.4383 13.8732 37.7826 10.2174C34.1268 6.56167 29.1701 4.50546 24 4.5ZM24 40.5C20.7366 40.5 17.5465 39.5323 14.8331 37.7192C12.1197 35.9062 10.0048 33.3293 8.756 30.3143C7.50715 27.2993 7.1804 23.9817 7.81705 20.781C8.45371 17.5803 10.0252 14.6403 12.3327 12.3327C14.6403 10.0252 17.5803 8.4537 20.781 7.81704C23.9817 7.18039 27.2993 7.50714 30.3143 8.75599C33.3293 10.0048 35.9062 12.1197 37.7193 14.8331C39.5323 17.5465 40.5 20.7366 40.5 24C40.495 28.3745 38.7551 32.5685 35.6618 35.6618C32.5685 38.7551 28.3746 40.495 24 40.5ZM19.5 20.25C19.5 20.695 19.368 21.13 19.1208 21.5C18.8736 21.87 18.5222 22.1584 18.111 22.3287C17.6999 22.499 17.2475 22.5436 16.8111 22.4568C16.3746 22.37 15.9737 22.1557 15.659 21.841C15.3443 21.5263 15.1301 21.1254 15.0432 20.689C14.9564 20.2525 15.001 19.8001 15.1713 19.389C15.3416 18.9778 15.63 18.6264 16 18.3792C16.37 18.132 16.805 18 17.25 18C17.8467 18 18.419 18.2371 18.841 18.659C19.263 19.081 19.5 19.6533 19.5 20.25ZM33 20.25C33 20.695 32.868 21.13 32.6208 21.5C32.3736 21.87 32.0222 22.1584 31.611 22.3287C31.1999 22.499 30.7475 22.5436 30.3111 22.4568C29.8746 22.37 29.4737 22.1557 29.159 21.841C28.8444 21.5263 28.6301 21.1254 28.5432 20.689C28.4564 20.2525 28.501 19.8001 28.6713 19.389C28.8416 18.9778 29.13 18.6264 29.5 18.3792C29.87 18.132 30.305 18 30.75 18C31.3467 18 31.919 18.2371 32.341 18.659C32.763 19.081 33 19.6533 33 20.25Z" fill="#313234"/>
</g>
<defs>
<clipPath id="clip0_93_9328">
<rect width="48" height="48" fill="white"/>
</clipPath>
</defs>
</svg>
