<svg width="46" height="46" viewBox="0 0 46 46" fill="none" xmlns="http://www.w3.org/2000/svg">
<path d="M21.5 6.5V2C21.5 1.60218 21.658 1.22064 21.9393 0.93934C22.2206 0.658035 22.6022 0.5 23 0.5C23.3978 0.5 23.7794 0.658035 24.0607 0.93934C24.342 1.22064 24.5 1.60218 24.5 2V6.5C24.5 6.89782 24.342 7.27936 24.0607 7.56066C23.7794 7.84196 23.3978 8 23 8C22.6022 8 22.2206 7.84196 21.9393 7.56066C21.658 7.27936 21.5 6.89782 21.5 6.5ZM35 23C35 25.3734 34.2962 27.6935 32.9776 29.6668C31.6591 31.6402 29.7849 33.1783 27.5922 34.0866C25.3995 34.9948 22.9867 35.2324 20.6589 34.7694C18.3311 34.3064 16.1929 33.1635 14.5147 31.4853C12.8365 29.8071 11.6936 27.6689 11.2306 25.3411C10.7676 23.0133 11.0052 20.6005 11.9134 18.4078C12.8217 16.2151 14.3598 14.3409 16.3332 13.0224C18.3065 11.7038 20.6266 11 23 11C26.1815 11.0035 29.2318 12.2689 31.4814 14.5186C33.7311 16.7682 34.9965 19.8185 35 23ZM32 23C32 21.22 31.4722 19.4799 30.4832 17.9999C29.4943 16.5198 28.0887 15.3663 26.4442 14.6851C24.7996 14.0039 22.99 13.8257 21.2442 14.1729C19.4984 14.5202 17.8947 15.3774 16.636 16.636C15.3774 17.8947 14.5202 19.4984 14.1729 21.2442C13.8257 22.99 14.0039 24.7996 14.6851 26.4442C15.3663 28.0887 16.5198 29.4943 17.9999 30.4832C19.4799 31.4722 21.22 32 23 32C25.3862 31.9975 27.6739 31.0485 29.3612 29.3612C31.0485 27.6739 31.9975 25.3862 32 23ZM9.93875 12.0613C10.2202 12.3427 10.602 12.5008 11 12.5008C11.398 12.5008 11.7798 12.3427 12.0613 12.0613C12.3427 11.7798 12.5008 11.398 12.5008 11C12.5008 10.602 12.3427 10.2202 12.0613 9.93875L9.06125 6.93875C8.77979 6.65729 8.39805 6.49917 8 6.49917C7.60195 6.49917 7.22021 6.65729 6.93875 6.93875C6.65729 7.22021 6.49917 7.60195 6.49917 8C6.49917 8.39805 6.65729 8.77979 6.93875 9.06125L9.93875 12.0613ZM9.93875 33.9388L6.93875 36.9388C6.65729 37.2202 6.49917 37.602 6.49917 38C6.49917 38.398 6.65729 38.7798 6.93875 39.0612C7.22021 39.3427 7.60195 39.5008 8 39.5008C8.39805 39.5008 8.77979 39.3427 9.06125 39.0612L12.0613 36.0612C12.2006 35.9219 12.3112 35.7564 12.3866 35.5743C12.462 35.3923 12.5008 35.1971 12.5008 35C12.5008 34.8029 12.462 34.6077 12.3866 34.4257C12.3112 34.2436 12.2006 34.0781 12.0613 33.9388C11.9219 33.7994 11.7564 33.6888 11.5743 33.6134C11.3923 33.538 11.1971 33.4992 11 33.4992C10.8029 33.4992 10.6077 33.538 10.4257 33.6134C10.2436 33.6888 10.0781 33.7994 9.93875 33.9388ZM35 12.5C35.197 12.5002 35.3922 12.4615 35.5743 12.3862C35.7564 12.3109 35.9218 12.2005 36.0612 12.0613L39.0612 9.06125C39.3427 8.77979 39.5008 8.39805 39.5008 8C39.5008 7.60195 39.3427 7.22021 39.0612 6.93875C38.7798 6.65729 38.398 6.49917 38 6.49917C37.602 6.49917 37.2202 6.65729 36.9388 6.93875L33.9388 9.93875C33.7287 10.1485 33.5857 10.4159 33.5277 10.707C33.4697 10.9982 33.4994 11.3 33.6131 11.5742C33.7267 11.8484 33.9191 12.0828 34.166 12.2476C34.4129 12.4124 34.7032 12.5002 35 12.5ZM36.0612 33.9388C35.7798 33.6573 35.398 33.4992 35 33.4992C34.602 33.4992 34.2202 33.6573 33.9388 33.9388C33.6573 34.2202 33.4992 34.602 33.4992 35C33.4992 35.398 33.6573 35.7798 33.9388 36.0612L36.9388 39.0612C37.0781 39.2006 37.2436 39.3112 37.4257 39.3866C37.6077 39.462 37.8029 39.5008 38 39.5008C38.1971 39.5008 38.3923 39.462 38.5743 39.3866C38.7564 39.3112 38.9219 39.2006 39.0612 39.0612C39.2006 38.9219 39.3112 38.7564 39.3866 38.5743C39.462 38.3923 39.5008 38.1971 39.5008 38C39.5008 37.8029 39.462 37.6077 39.3866 37.4257C39.3112 37.2436 39.2006 37.0781 39.0612 36.9388L36.0612 33.9388ZM8 23C8 22.6022 7.84196 22.2206 7.56066 21.9393C7.27936 21.658 6.89782 21.5 6.5 21.5H2C1.60218 21.5 1.22064 21.658 0.93934 21.9393C0.658035 22.2206 0.5 22.6022 0.5 23C0.5 23.3978 0.658035 23.7794 0.93934 24.0607C1.22064 24.342 1.60218 24.5 2 24.5H6.5C6.89782 24.5 7.27936 24.342 7.56066 24.0607C7.84196 23.7794 8 23.3978 8 23ZM23 38C22.6022 38 22.2206 38.158 21.9393 38.4393C21.658 38.7206 21.5 39.1022 21.5 39.5V44C21.5 44.3978 21.658 44.7794 21.9393 45.0607C22.2206 45.342 22.6022 45.5 23 45.5C23.3978 45.5 23.7794 45.342 24.0607 45.0607C24.342 44.7794 24.5 44.3978 24.5 44V39.5C24.5 39.1022 24.342 38.7206 24.0607 38.4393C23.7794 38.158 23.3978 38 23 38ZM44 21.5H39.5C39.1022 21.5 38.7206 21.658 38.4393 21.9393C38.158 22.2206 38 22.6022 38 23C38 23.3978 38.158 23.7794 38.4393 24.0607C38.7206 24.342 39.1022 24.5 39.5 24.5H44C44.3978 24.5 44.7794 24.342 45.0607 24.0607C45.342 23.7794 45.5 23.3978 45.5 23C45.5 22.6022 45.342 22.2206 45.0607 21.9393C44.7794 21.658 44.3978 21.5 44 21.5Z" fill="#313234"/>
</svg>
