<svg width="40" height="40" viewBox="0 0 40 40" fill="none" xmlns="http://www.w3.org/2000/svg">
<path d="M27.0613 15.0613L22.1206 20L27.0613 24.9387C27.2006 25.0781 27.3112 25.2436 27.3866 25.4257C27.462 25.6077 27.5008 25.8029 27.5008 26C27.5008 26.1971 27.462 26.3923 27.3866 26.5743C27.3112 26.7564 27.2006 26.9219 27.0613 27.0613C26.9219 27.2006 26.7564 27.3112 26.5744 27.3866C26.3923 27.462 26.1971 27.5008 26 27.5008C25.8029 27.5008 25.6078 27.462 25.4257 27.3866C25.2436 27.3112 25.0781 27.2006 24.9388 27.0613L20 22.1206L15.0613 27.0613C14.9219 27.2006 14.7564 27.3112 14.5744 27.3866C14.3923 27.462 14.1971 27.5008 14 27.5008C13.8029 27.5008 13.6078 27.462 13.4257 27.3866C13.2436 27.3112 13.0781 27.2006 12.9388 27.0613C12.7994 26.9219 12.6888 26.7564 12.6134 26.5743C12.538 26.3923 12.4992 26.1971 12.4992 26C12.4992 25.8029 12.538 25.6077 12.6134 25.4257C12.6888 25.2436 12.7994 25.0781 12.9388 24.9387L17.8794 20L12.9388 15.0613C12.6573 14.7798 12.4992 14.398 12.4992 14C12.4992 13.602 12.6573 13.2202 12.9388 12.9387C13.2202 12.6573 13.602 12.4992 14 12.4992C14.3981 12.4992 14.7798 12.6573 15.0613 12.9387L20 17.8794L24.9388 12.9387C25.0781 12.7994 25.2436 12.6888 25.4257 12.6134C25.6078 12.538 25.8029 12.4992 26 12.4992C26.1971 12.4992 26.3923 12.538 26.5744 12.6134C26.7564 12.6888 26.9219 12.7994 27.0613 12.9387C27.2006 13.0781 27.3112 13.2436 27.3866 13.4257C27.462 13.6077 27.5008 13.8029 27.5008 14C27.5008 14.1971 27.462 14.3923 27.3866 14.5743C27.3112 14.7564 27.2006 14.9219 27.0613 15.0613ZM39.5 20C39.5 23.8567 38.3564 27.6269 36.2137 30.8336C34.071 34.0404 31.0255 36.5397 27.4623 38.0156C23.8992 39.4916 19.9784 39.8777 16.1957 39.1253C12.4131 38.3729 8.93855 36.5157 6.21143 33.7886C3.4843 31.0615 1.62711 27.5869 0.874696 23.8043C0.122284 20.0216 0.508449 16.1008 1.98436 12.5377C3.46027 8.97451 5.95963 5.92903 9.16639 3.78634C12.3731 1.64366 16.1433 0.5 20 0.5C25.1701 0.50546 30.1268 2.56167 33.7826 6.21745C37.4383 9.87322 39.4945 14.83 39.5 20ZM36.5 20C36.5 16.7366 35.5323 13.5465 33.7193 10.8331C31.9062 8.11968 29.3293 6.00483 26.3143 4.75599C23.2993 3.50714 19.9817 3.18039 16.781 3.81704C13.5803 4.4537 10.6403 6.02517 8.33275 8.33274C6.02518 10.6403 4.45371 13.5803 3.81705 16.781C3.1804 19.9817 3.50715 23.2993 4.756 26.3143C6.00484 29.3293 8.11969 31.9062 10.8331 33.7192C13.5465 35.5323 16.7366 36.5 20 36.5C24.3746 36.495 28.5685 34.7551 31.6618 31.6618C34.7551 28.5685 36.495 24.3745 36.5 20Z" fill="white"/>
</svg>
